#tb 0: 1/30
#media_type 0: video
#codec_id 0: rawvideo
#dimensions 0: 512x384
#sar 0: 0/1
0,          0,          0,        1,   589824, 0x0b181bbf
0,          1,          1,        1,   589824, 0xcd740f79
0,          2,          2,        1,   589824, 0x16f8f90e
0,          3,          3,        1,   589824, 0x1aaaceba
0,          5,          5,        1,   589824, 0x902e8fe4
0,          6,          6,        1,   589824, 0x019a4443
0,          8,          8,        1,   589824, 0x04eff6c6
